<svg width="173" height="48" viewBox="0 0 173 48" fill="none" xmlns="http://www.w3.org/2000/svg">
<path d="M32.3045 28.3163L20.6579 16.666C19.5141 15.5222 19.5141 13.6483 20.6579 12.5045L32.3045 0.857851C33.4483 -0.28595 35.3223 -0.28595 36.4661 0.857851L48.1163 12.5081C49.2601 13.6519 49.2601 15.5258 48.1163 16.6696L36.4661 28.3163C35.3223 29.4601 33.4519 29.4601 32.3045 28.3163Z" fill="white"/>
<path d="M13.2555 46.9227L1.60883 35.2761C0.465026 34.1323 0.465026 32.2583 1.60883 31.1145L13.2591 19.4643C14.4029 18.3205 16.2768 18.3205 17.4206 19.4643L29.0709 31.1145C30.2147 32.2583 30.2147 34.1323 29.0709 35.2761L17.4206 46.9263C16.2732 48.0665 14.4029 48.0665 13.2555 46.9227Z" fill="url(#paint0_linear_1_300)"/>
<path d="M51.2092 46.9227L39.559 35.2761C38.4152 34.1323 38.4152 32.2583 39.559 31.1145L51.2092 19.4643C52.353 18.3205 54.227 18.3205 55.3708 19.4643L67.021 31.1145C68.1648 32.2583 68.1648 34.1323 67.021 35.2761L55.3708 46.9263C54.2234 48.0665 52.353 48.0665 51.2092 46.9227Z" fill="url(#paint1_linear_1_300)"/>
<path d="M89.5732 33.4563L95.3066 19.8889C95.3389 19.8098 95.2814 19.7235 95.1951 19.7235H90.0336C89.994 19.7235 89.9544 19.7019 89.9329 19.6695L88.1632 16.8963C88.1128 16.8172 88.1704 16.7129 88.2639 16.7129H98.7631C98.8279 16.7129 98.8818 16.7668 98.8818 16.8316V18.9358C98.8818 18.9501 98.8782 18.9681 98.8746 18.9789L92.9974 33.5462C92.9794 33.593 92.9362 33.6217 92.8859 33.6217H89.6811C89.5983 33.6253 89.5372 33.5354 89.5732 33.4563Z" fill="white"/>
<path d="M97.8175 27.7301L98.8893 25.108C98.9037 25.0721 98.9397 25.0469 98.9793 25.0469H104.177C104.231 25.0469 104.274 25.09 104.274 25.144V27.7661C104.274 27.8201 104.231 27.8632 104.177 27.8632H97.9038C97.8391 27.8632 97.7923 27.7913 97.8175 27.7301Z" fill="white"/>
<path d="M130.639 33.5965V31.0643H130.391C128.992 31.0643 127.765 30.8197 126.712 30.327C125.658 29.8342 124.827 29.0968 124.223 28.1149C123.618 27.133 123.312 26.0395 123.312 24.8418C123.312 23.68 123.582 22.6297 124.118 21.6981C124.658 20.7629 125.435 20.0328 126.449 19.504C127.463 18.9753 128.661 18.7091 130.039 18.7091H130.636V16.6841H133.787V18.7091H134.384C135.754 18.7091 136.948 18.9717 137.963 19.504C138.977 20.0328 139.757 20.7629 140.3 21.6981C140.844 22.6333 141.113 23.68 141.113 24.8418C141.113 26.0431 140.811 27.133 140.203 28.1149C139.599 29.0968 138.768 29.8342 137.714 30.327C136.66 30.8197 135.434 31.0643 134.035 31.0643H133.787V33.5965H130.639ZM130.639 21.4319H130.175C129.071 21.4319 128.197 21.7413 127.557 22.3563C126.917 22.9714 126.596 23.7915 126.596 24.8202C126.596 25.8992 126.935 26.7625 127.611 27.4099C128.287 28.0538 129.244 28.3775 130.477 28.3775H130.636V21.4319H130.639ZM133.79 28.3775H133.948C135.161 28.3775 136.11 28.061 136.801 27.4279C137.488 26.7949 137.833 25.9244 137.833 24.8238C137.833 23.8023 137.513 22.9822 136.873 22.3635C136.232 21.7449 135.358 21.4355 134.254 21.4355H133.79V28.3775Z" fill="white"/>
<path d="M121.823 25.1367C121.823 27.8559 121.147 29.9457 119.794 31.406C118.442 32.8664 116.507 33.5965 113.982 33.5965C111.46 33.5965 109.522 32.8664 108.169 31.406C106.817 29.9457 106.141 27.8487 106.141 25.1115C106.141 22.3779 106.817 20.2881 108.173 18.8458C109.529 17.4035 111.471 16.6841 114 16.6841C116.528 16.6841 118.463 17.4106 119.805 18.8638C121.154 20.3169 121.823 22.4103 121.823 25.1367ZM109.806 25.1367C109.806 26.9711 110.155 28.3559 110.853 29.2839C111.55 30.2119 112.593 30.6759 113.982 30.6759C116.766 30.6759 118.161 28.8307 118.161 25.1367C118.161 21.4355 116.777 19.5867 114.007 19.5867C112.619 19.5867 111.572 20.0543 110.863 20.9859C110.158 21.9175 109.806 23.2987 109.806 25.1367Z" fill="white"/>
<path d="M87.9119 21.9787C87.9119 23.7988 87.3436 25.1907 86.2034 26.1547C85.0632 27.1187 83.4446 27.6006 81.3404 27.6006H79.7974V33.6146H76.2041V16.7021H81.6174C83.6712 16.7021 85.2358 17.1446 86.3041 18.0258C87.3759 18.9106 87.9119 20.2271 87.9119 21.9787ZM79.801 24.662H80.9843C82.0886 24.662 82.9158 24.4426 83.4626 24.0074C84.0129 23.5722 84.2862 22.9355 84.2862 22.1046C84.2862 21.263 84.056 20.6443 83.5956 20.2415C83.1353 19.8422 82.4159 19.6408 81.4339 19.6408H79.801V24.662Z" fill="white"/>
<path d="M143.009 16.6841H146.235V24.8526L146.188 27.0394L146.073 29.5285H146.142L153.95 16.6877H158.241V33.6001H155.047V25.4784C155.047 24.3922 155.116 22.7808 155.256 20.6442H155.163L147.321 33.6001H143.005V16.6841H143.009Z" fill="white"/>
<path d="M167.938 19.5867C166.625 19.5867 165.608 20.0795 164.888 21.0651C164.169 22.0506 163.809 23.4246 163.809 25.1907C163.809 28.8595 165.187 30.6938 167.938 30.6938C169.093 30.6938 170.492 30.4061 172.136 29.827V32.7513C170.787 33.3124 169.276 33.5965 167.611 33.5965C165.219 33.5965 163.388 32.87 162.119 31.4204C160.849 29.9709 160.216 27.8847 160.216 25.1691C160.216 23.457 160.529 21.9607 161.151 20.673C161.773 19.3853 162.669 18.3998 163.834 17.7128C165 17.0258 166.366 16.6841 167.935 16.6841C169.532 16.6841 171.136 17.0689 172.751 17.8423L171.625 20.6766C171.01 20.3853 170.391 20.1299 169.769 19.9105C169.147 19.6911 168.539 19.5867 167.938 19.5867Z" fill="white"/>
<defs>
<linearGradient id="paint0_linear_1_300" x1="15.3372" y1="47.904" x2="15.3372" y2="18.7279" gradientUnits="userSpaceOnUse">
<stop stop-color="white"/>
<stop offset="1" stop-color="white"/>
</linearGradient>
<linearGradient id="paint1_linear_1_300" x1="53.2884" y1="47.7821" x2="53.2884" y2="18.6061" gradientUnits="userSpaceOnUse">
<stop stop-color="white"/>
<stop offset="1" stop-color="white"/>
</linearGradient>
</defs>
</svg>
