<svg width="158" height="61" viewBox="0 0 158 61" fill="none" xmlns="http://www.w3.org/2000/svg">
<g clip-path="url(#clip0_1_524)">
<path d="M59.5454 22.5305C56.7508 22.5305 54.0637 21.5487 51.3767 20.5669C48.7971 19.5851 46.11 18.6033 43.4229 18.6033C41.4882 18.6033 39.7685 19.1487 38.1562 20.1305V24.6033C39.7685 23.6215 41.4882 23.1851 43.4229 23.1851C46.2175 23.1851 48.9045 24.1669 51.5916 25.1487C54.1712 26.1305 56.8583 27.1124 59.5454 27.1124C61.695 27.1124 63.7372 26.4578 65.5644 25.0396V20.676C63.6297 21.9851 61.695 22.5305 59.5454 22.5305Z" fill="white"/>
<path d="M51.3769 11.8394C48.7973 10.8576 46.1102 9.87573 43.4232 9.87573C41.4885 9.87573 39.7687 10.4212 38.1565 11.403V15.8757C39.7687 14.8939 41.4885 14.4576 43.4232 14.4576C46.2177 14.4576 48.9048 15.4394 51.5919 16.4212C54.1715 17.403 56.8585 18.3848 59.5456 18.3848C61.6953 18.3848 63.7374 17.7303 65.5647 16.3121V11.9485C63.7374 13.2576 61.6953 13.803 59.5456 13.803C56.7511 13.803 53.9565 12.8212 51.3769 11.8394Z" fill="white"/>
<path d="M51.5916 33.8753C54.1712 34.8571 56.8583 35.8389 59.5454 35.8389C61.695 35.8389 63.7372 35.1844 65.5644 33.7662V29.4026C63.7372 30.7117 61.695 31.2571 59.5454 31.2571C56.7508 31.2571 54.0637 30.2753 51.3767 29.2935C48.7971 28.3117 46.11 27.3298 43.4229 27.3298C41.4882 27.3298 39.7685 27.8753 38.1562 28.8571V33.3298C39.7685 32.348 41.4882 31.9117 43.4229 31.9117C46.11 31.9117 48.9045 32.8935 51.5916 33.8753Z" fill="white"/>
<path d="M129.947 13.9121C128.12 12.1666 125.648 11.403 122.423 11.403C119.199 11.403 116.727 12.2757 114.899 13.9121C111.997 16.6394 111.567 20.3484 111.567 22.8575C111.567 25.3666 111.89 29.0757 114.899 31.803C116.727 33.5484 119.199 34.3121 122.423 34.3121C125.648 34.3121 128.12 33.4394 129.947 31.803C132.849 29.0757 133.171 25.3666 133.171 22.8575C133.171 20.3484 132.956 16.6394 129.947 13.9121ZM127.045 24.603C127.045 25.6939 127.045 27.5484 125.755 28.8575C125.003 29.6212 123.82 30.0575 122.638 30.0575C121.456 30.0575 120.273 29.6212 119.521 28.8575C118.231 27.5484 118.231 25.6939 118.231 24.603V20.6757C118.231 19.5848 118.231 17.7303 119.521 16.4212C120.273 15.6575 121.456 15.2212 122.638 15.2212C123.82 15.2212 125.003 15.6575 125.755 16.4212C127.045 17.7303 127.045 19.5848 127.045 20.6757V24.603ZM100.927 33.6575V16.3121L98.5619 11.6212H107.053V33.5484L100.927 33.6575ZM145.532 16.0939C144.995 16.4212 144.35 16.8575 143.92 17.1848L143.812 17.2939V33.6575H137.793V16.0939L135.429 11.7303H142.737V14.1303L143.275 13.6939C144.027 12.9303 144.78 12.4939 145.747 12.0575C146.929 11.5121 148.004 11.2939 149.724 11.2939C152.411 11.2939 154.453 11.9484 155.958 13.3666C158.215 15.5484 158.215 18.2757 158.215 19.9121V33.7666H152.196V19.2575C152.196 18.2757 152.196 17.1848 151.229 16.3121C150.584 15.6575 149.616 15.3303 148.434 15.3303C147.144 15.3303 146.177 15.7666 145.532 16.0939ZM24.9361 15.2212C23.4313 15.2212 22.249 16.0939 21.3891 16.8575L21.2816 16.9666V33.6575H15.2626V18.7121C15.2626 18.1666 15.2626 17.0757 14.4027 16.203C13.8653 15.6575 13.1129 15.3303 12.1456 15.3303C10.6408 15.3303 9.4585 16.203 8.59864 16.9666L8.49116 17.0757V33.7666H2.36463V16.0939L0 11.7303H7.30884V14.0212L8.27619 13.1484C9.88844 11.8394 11.8231 11.0757 14.1878 11.0757C16.4449 11.0757 18.1646 11.8394 19.5619 13.4757L19.7769 13.803L19.9918 13.4757C21.3891 11.8394 23.2163 11.0757 25.581 11.0757C29.4503 11.0757 34.0721 12.4939 34.0721 19.2575V33.4394H28.0531V18.7121C28.0531 18.1666 28.0531 17.0757 27.1932 16.203C26.6558 15.5484 25.9034 15.2212 24.9361 15.2212ZM86.5238 15.4394L82.0095 17.5121C81.4721 16.5303 80.5048 15.8757 79.3225 15.8757C78.2476 15.8757 77.3878 16.3121 76.8503 16.9666C76.2054 17.7303 75.883 18.9303 75.883 20.5666V33.4394H69.8639V11.7303H74.9156V15.1121L75.9905 13.6939C76.4204 13.1484 78.0327 11.1848 81.2571 11.1848C81.902 11.1848 83.8367 11.1848 85.1265 12.1666C85.449 12.603 86.4163 13.6939 86.5238 15.4394ZM106.946 5.1848C106.946 7.25753 105.333 8.7848 103.291 8.7848C101.249 8.7848 99.6367 7.14844 99.6367 5.1848C99.6367 3.11208 101.249 1.58481 103.291 1.58481C105.333 1.58481 106.946 3.22117 106.946 5.1848ZM94.4776 0.493896V33.6575H88.4585V0.493896H94.4776Z" fill="white"/>
<path d="M7.95356 47.7295H9.45832V55.9113H7.84607V50.4568L3.65424 55.9113H2.04199V47.7295H3.76172V53.0749L7.95356 47.7295Z" fill="white" fill-opacity="0.8"/>
<path d="M16.2299 51.3295L19.2394 47.7295H20.6367V55.9113H18.917V50.4568L16.3374 53.6204L13.7578 50.4568V55.9113H12.0381V47.7295H13.4354L16.2299 51.3295Z" fill="white" fill-opacity="0.8"/>
<path d="M24.6133 49.2568V55.9113H22.8936V47.7295H30.2024V55.9113H28.4827V49.2568H24.6133Z" fill="white" fill-opacity="0.8"/>
<path d="M38.0488 53.839C38.5863 53.2935 38.8012 52.639 38.8012 51.8754C38.8012 51.1117 38.5863 50.4572 38.0488 49.9117C37.5114 49.3663 36.974 49.1481 36.2216 49.1481C35.4692 49.1481 34.9318 49.3663 34.3944 49.9117C33.857 50.4572 33.642 51.1117 33.642 51.8754C33.642 52.639 33.857 53.2935 34.3944 53.839C34.9318 54.3844 35.4692 54.6026 36.2216 54.6026C36.974 54.6026 37.6189 54.3844 38.0488 53.839ZM33.3196 54.9299C32.4597 54.0572 32.0298 53.0754 32.0298 51.8754C32.0298 50.6754 32.4597 49.6935 33.3196 48.8208C34.1794 47.9481 35.1468 47.5117 36.3291 47.5117C37.5114 47.5117 38.4788 47.9481 39.3386 48.8208C40.1985 49.6935 40.6284 50.6754 40.6284 51.8754C40.6284 53.0754 40.1985 54.0572 39.3386 54.9299C38.4788 55.8026 37.5114 56.239 36.3291 56.239C35.1468 56.1299 34.1794 55.6935 33.3196 54.9299Z" fill="white" fill-opacity="0.8"/>
<path d="M46.6475 56.1299C46.325 56.1299 46.0026 56.1299 45.7876 56.0208C45.4651 55.9117 45.2502 55.9117 45.0352 55.8026C44.8203 55.6935 44.6053 55.5844 44.4978 55.4754C44.3903 55.3663 44.2828 55.2572 44.1754 55.1481L44.0679 55.039V59.6208H42.3481V47.7299H44.0679V48.7117C44.1754 48.6026 44.2828 48.4935 44.3903 48.3844C44.4978 48.2754 44.8203 48.0572 45.2502 47.839C45.6801 47.6208 46.2175 47.5117 46.6475 47.5117C47.7223 47.5117 48.6896 47.9481 49.442 48.8208C50.1944 49.6935 50.6243 50.6754 50.6243 51.8754C50.6243 53.0754 50.1944 54.0572 49.442 54.9299C48.6896 55.6935 47.7223 56.1299 46.6475 56.1299ZM48.2597 49.9117C47.7223 49.3663 47.1849 49.1481 46.54 49.1481C45.8951 49.1481 45.3577 49.3663 44.8203 49.9117C44.2828 50.4572 44.0679 51.1117 44.0679 51.8754C44.0679 52.639 44.2828 53.2935 44.8203 53.839C45.3577 54.3844 45.8951 54.6026 46.54 54.6026C47.1849 54.6026 47.7223 54.3844 48.2597 53.839C48.7971 53.2935 49.0121 52.639 49.0121 51.8754C49.0121 51.1117 48.6896 50.4572 48.2597 49.9117Z" fill="white" fill-opacity="0.8"/>
<path d="M51.6992 49.2568V47.7295H59.0081V49.2568H56.2135V55.9113H54.4938V49.2568H51.6992Z" fill="white" fill-opacity="0.8"/>
<path d="M65.9945 53.839C66.5319 53.2935 66.7468 52.639 66.7468 51.8754C66.7468 51.1117 66.5319 50.4572 65.9945 49.9117C65.457 49.3663 64.9196 49.1481 64.1672 49.1481C63.4149 49.1481 62.8774 49.3663 62.34 49.9117C61.8026 50.4572 61.5876 51.1117 61.5876 51.8754C61.5876 52.639 61.8026 53.2935 62.34 53.839C62.8774 54.3844 63.4149 54.6026 64.1672 54.6026C64.9196 54.6026 65.457 54.3844 65.9945 53.839ZM61.1577 54.9299C60.2979 54.0572 59.8679 53.0754 59.8679 51.8754C59.8679 50.6754 60.2979 49.6935 61.1577 48.8208C62.0176 47.9481 62.9849 47.5117 64.1672 47.5117C65.3496 47.5117 66.3169 47.9481 67.1768 48.8208C68.0366 49.6935 68.4666 50.6754 68.4666 51.8754C68.4666 53.0754 68.0366 54.0572 67.1768 54.9299C66.3169 55.8026 65.3496 56.239 64.1672 56.239C63.0924 56.1299 62.0176 55.6935 61.1577 54.9299Z" fill="white" fill-opacity="0.8"/>
<path d="M75.668 49.9113C75.668 50.2386 75.5606 50.6749 75.3456 50.8931C75.1306 51.2204 74.9157 51.3295 74.7007 51.4386L74.3782 51.5477C74.3782 51.5477 74.4857 51.5477 74.5932 51.6568C74.7007 51.6568 74.8082 51.7659 75.0231 51.8749C75.2381 51.984 75.3456 52.0931 75.4531 52.2022C75.5606 52.3113 75.7755 52.5295 75.883 52.7477C75.9905 52.9659 76.098 53.2931 76.098 53.6204C76.098 54.2749 75.7755 54.9295 75.2381 55.3659C74.5932 55.8022 73.8408 56.1295 72.766 56.1295C72.3361 56.1295 72.0136 56.1295 71.5837 56.0204C71.2612 55.9113 70.9388 55.8022 70.7238 55.6931C70.5089 55.584 70.2939 55.3659 70.0789 55.2568C69.864 55.1477 69.7565 55.0386 69.649 54.9295L69.5415 54.8204L70.6163 53.7295C70.7238 53.8386 70.7238 53.9477 70.8313 54.0568C70.9388 54.1659 71.1538 54.2749 71.5837 54.4931C71.9061 54.7113 72.3361 54.8204 72.6585 54.8204C73.1959 54.8204 73.6259 54.7113 73.9483 54.4931C74.2708 54.2749 74.3782 54.0568 74.3782 53.7295C74.3782 53.4022 74.2708 53.184 73.9483 52.9659C73.6259 52.7477 73.1959 52.6386 72.6585 52.6386H71.6912V51.2204H72.6585C73.0884 51.2204 73.4109 51.1113 73.6259 51.0022C73.8408 50.784 73.9483 50.5659 73.9483 50.3477C73.9483 50.0204 73.8408 49.8022 73.6259 49.6931C73.4109 49.2568 73.0884 49.1477 72.6585 49.1477C72.3361 49.1477 72.0136 49.2568 71.6912 49.3659C71.3687 49.4749 71.1538 49.584 71.0463 49.8022L70.8313 50.0204L69.7565 48.9295C69.864 48.8204 69.9714 48.7113 70.0789 48.6022C70.1864 48.4931 70.5089 48.2749 71.0463 48.0568C71.5837 47.8386 72.1211 47.7295 72.6585 47.7295C73.6259 47.7295 74.3782 47.9477 74.9157 48.384C75.3456 48.7113 75.668 49.2568 75.668 49.9113Z" fill="white" fill-opacity="0.8"/>
<path d="M84.3742 56.0211H82.6544V55.1484L82.5469 55.2575C82.5469 55.2575 82.4395 55.3665 82.2245 55.4756C82.117 55.5847 81.902 55.6938 81.6871 55.8029C81.4721 55.912 81.2571 56.0211 81.0422 56.0211C80.8272 56.0211 80.5048 56.1302 80.1823 56.1302C79.3224 56.1302 78.6775 55.912 78.1401 55.3666C77.6027 54.9302 77.2803 54.2756 77.2803 53.7302C77.2803 53.0756 77.4952 52.5302 77.9252 51.9847C78.3551 51.5484 78.8925 51.2211 79.6449 51.112L82.6544 50.5665C82.6544 50.1302 82.5469 49.8029 82.2245 49.4756C81.902 49.1484 81.4721 49.0393 81.0422 49.0393C80.6122 49.0393 80.1823 49.1484 79.8599 49.3666C79.5374 49.5847 79.3224 49.6938 79.1075 49.912L78.8925 50.2393L77.8177 49.1484C77.8177 49.1484 77.9252 49.0393 77.9252 48.9302C78.0327 48.8211 78.1401 48.712 78.3551 48.6029C78.5701 48.3847 78.785 48.2756 79 48.1665C79.215 48.0575 79.5374 47.9484 79.8599 47.8393C80.1823 47.7302 80.6122 47.6211 81.0422 47.6211C82.0095 47.6211 82.8694 47.9484 83.5143 48.4938C84.1592 49.0393 84.4816 49.8029 84.4816 50.6756V56.0211H84.3742ZM80.5048 54.6029C81.1497 54.6029 81.6871 54.3847 82.117 53.9484C82.5469 53.512 82.6544 52.9665 82.6544 52.2029V51.9847L80.0748 52.4211C79.7524 52.5302 79.5374 52.6393 79.3225 52.7484C79.1075 52.9665 79 53.1847 79 53.512C79 53.8393 79.1075 54.0575 79.4299 54.2756C79.6449 54.4938 80.0748 54.6029 80.5048 54.6029Z" fill="white" fill-opacity="0.8"/>
<path d="M91.038 51.3295L94.0475 47.7295H95.4448V55.9113H93.7251V50.4568L91.1455 53.6204L88.5659 50.4568V55.9113H86.8462V47.7295H88.136L91.038 51.3295Z" fill="white" fill-opacity="0.8"/>
<path d="M105.226 52.4204H98.8843C98.9918 52.9659 99.2068 53.5113 99.7442 53.9477C100.174 54.384 100.819 54.6022 101.464 54.6022C101.894 54.6022 102.324 54.4931 102.754 54.2749C103.184 54.0568 103.506 53.8386 103.614 53.6204L103.829 53.2931L104.903 54.384C104.903 54.384 104.796 54.4931 104.796 54.6022C104.688 54.7113 104.581 54.8204 104.366 55.0386C104.151 55.2568 103.936 55.3659 103.614 55.584C103.399 55.6931 103.076 55.9113 102.646 56.0204C102.216 56.1295 101.786 56.2386 101.356 56.2386C100.174 56.2386 99.2068 55.8022 98.3469 54.9295C97.4871 54.0568 97.0571 53.0749 97.0571 51.8749C97.0571 50.6749 97.4871 49.6931 98.2394 48.9295C99.0993 48.0568 100.067 47.7295 101.141 47.7295C102.324 47.7295 103.184 48.1659 103.936 48.9295C104.688 49.6931 105.118 50.6749 105.118 51.7659L105.226 52.4204ZM101.356 49.0386C100.712 49.0386 100.282 49.2568 99.8517 49.584C99.4218 49.9113 99.2068 50.4568 98.9918 51.0022H103.721C103.614 50.4568 103.399 49.9113 102.969 49.584C102.539 49.2568 102.001 49.0386 101.356 49.0386Z" fill="white" fill-opacity="0.8"/>
<path d="M107.16 56.0209V47.8391H108.88V54.4937H111.782V47.8391H113.502V54.4937H116.511V47.8391H118.231V54.4937H119.413V58.0937H117.694V56.0209H107.16Z" fill="white" fill-opacity="0.8"/>
<path d="M128.55 52.4204H122.208C122.316 52.9659 122.531 53.5113 123.068 53.9477C123.498 54.384 124.143 54.6022 124.788 54.6022C125.218 54.6022 125.648 54.4931 126.077 54.2749C126.507 54.0568 126.83 53.8386 126.937 53.6204L127.152 53.2931L128.227 54.384C128.227 54.384 128.12 54.4931 128.12 54.6022C128.012 54.7113 127.905 54.8204 127.69 55.0386C127.475 55.2568 127.26 55.3659 126.937 55.584C126.722 55.6931 126.4 55.9113 125.97 56.0204C125.54 56.1295 125.11 56.2386 124.68 56.2386C123.498 56.2386 122.531 55.8022 121.671 54.9295C120.811 54.0568 120.381 53.0749 120.381 51.8749C120.381 50.6749 120.811 49.6931 121.563 48.9295C122.423 48.0568 123.39 47.7295 124.465 47.7295C125.648 47.7295 126.507 48.1659 127.26 48.9295C128.012 49.6931 128.442 50.6749 128.442 51.7659L128.55 52.4204ZM124.68 49.0386C124.035 49.0386 123.605 49.2568 123.175 49.584C122.745 49.9113 122.531 50.4568 122.316 51.0022H127.045C126.937 50.4568 126.722 49.9113 126.292 49.584C125.755 49.2568 125.325 49.0386 124.68 49.0386Z" fill="white" fill-opacity="0.8"/>
<path d="M132.204 52.5295V55.9113H130.484V47.7295H132.204V51.0022H136.181V47.7295H137.901V55.9113H136.181V52.5295H132.204Z" fill="white" fill-opacity="0.8"/>
<path d="M146.069 47.7295H147.574V55.9113H145.854V50.4568L141.662 55.9113H140.158V47.7295H141.877V53.0749L146.069 47.7295Z" fill="white" fill-opacity="0.8"/>
<path d="M157.57 52.4204H151.229C151.336 52.9659 151.551 53.5113 152.088 53.9477C152.518 54.384 153.163 54.6022 153.808 54.6022C154.238 54.6022 154.668 54.4931 155.098 54.2749C155.528 54.0568 155.85 53.8386 155.958 53.6204L156.173 53.2931L157.248 54.384C157.248 54.384 157.14 54.4931 157.14 54.6022C157.033 54.7113 156.925 54.8204 156.71 55.0386C156.495 55.2568 156.28 55.3659 155.958 55.584C155.743 55.6931 155.42 55.9113 154.99 56.0204C154.561 56.1295 154.131 56.2386 153.701 56.2386C152.518 56.2386 151.551 55.8022 150.691 54.9295C149.831 54.0568 149.401 53.0749 149.401 51.8749C149.401 50.6749 149.831 49.6931 150.584 48.9295C151.444 48.0568 152.411 47.7295 153.486 47.7295C154.668 47.7295 155.528 48.1659 156.28 48.9295C157.033 49.6931 157.463 50.6749 157.463 51.7659L157.57 52.4204ZM153.593 49.0386C152.948 49.0386 152.518 49.2568 152.088 49.584C151.659 49.9113 151.444 50.4568 151.229 51.0022H155.958C155.85 50.4568 155.635 49.9113 155.205 49.584C154.776 49.2568 154.238 49.0386 153.593 49.0386Z" fill="white" fill-opacity="0.8"/>
</g>
<defs>
<clipPath id="clip0_1_524">
<rect width="158" height="60" fill="white" transform="translate(0 0.0576172)"/>
</clipPath>
</defs>
</svg>
